<svg t="1711692858719" class="icon" style="" viewBox="0 0 1024 1024" version="1.1" xmlns="http://www.w3.org/2000/svg" p-id="38870" width="200" height="200"><path d="M523.763 32l418.84 0.325c27.05 0.021 48.974 21.942 49 48.992L992 500.232a49.038 49.038 0 0 1-14.363 34.722L534.952 977.64c-19.15 19.15-50.2 19.15-69.35 0L46.363 558.4c-19.15-19.15-19.15-50.2 0-69.35L489.05 46.363A49.038 49.038 0 0 1 523.763 32z m3.702 280.134c-51.139 51.14-51.14 134.052-0.001 185.191 51.139 51.14 134.054 51.139 185.193 0 51.138-51.14 51.138-134.051-0.001-185.19-51.14-51.14-134.052-51.14-185.19 0z" fill="#cdcdcd" p-id="38871"></path></svg>